<svg width="106" height="68" viewBox="0 0 106 68" fill="none" xmlns="http://www.w3.org/2000/svg">
<path d="M0 67.7154V57.6519H3.57822C4.30918 57.6488 5.03837 57.7273 5.75347 57.8861C6.40832 58.0256 7.03021 58.3001 7.58303 58.6936C8.11876 59.0857 8.554 59.6103 8.85024 60.2208C9.19035 60.9696 9.35318 61.7933 9.32496 62.6221C9.34352 63.411 9.18798 64.1937 8.87046 64.9093C8.58722 65.5277 8.1721 66.0696 7.65718 66.493C7.13573 66.9132 6.54206 67.2244 5.9085 67.4095C5.23861 67.6115 4.54489 67.7134 3.84784 67.7123L0 67.7154ZM3.1035 60.5266V64.8175H3.69955C4.32201 64.8603 4.93955 64.6771 5.44823 64.2986C5.66651 64.083 5.83491 63.818 5.94055 63.5237C6.04619 63.2295 6.08627 62.9138 6.05775 62.6009C6.07254 62.3146 6.0254 62.0286 5.91985 61.7641C5.81429 61.4996 5.65307 61.2636 5.44823 61.0737C4.98769 60.6899 4.40942 60.4954 3.82184 60.5266H3.1035ZM14.9908 67.996C14.3246 68.0103 13.6612 67.8996 13.0322 67.6689C12.5144 67.4757 12.041 67.1707 11.6427 66.7736C11.2737 66.3974 10.9909 65.9384 10.8156 65.4311C10.6319 64.8958 10.5403 64.3305 10.545 63.7616V57.6519H13.7708V63.3922C13.7472 63.7985 13.8653 64.1999 14.103 64.5217C14.2211 64.6587 14.367 64.7661 14.53 64.836C14.693 64.9059 14.8689 64.9364 15.0447 64.9254C15.2205 64.9364 15.3965 64.9059 15.5595 64.836C15.7225 64.7661 15.8684 64.6587 15.9865 64.5217C16.2242 64.1999 16.3422 63.7985 16.3187 63.3922V57.6519H19.531V63.7616C19.5364 64.3323 19.4384 64.8988 19.2421 65.4311C19.0528 65.9395 18.7588 66.3979 18.3813 66.7736C17.9729 67.171 17.4907 67.4758 16.9648 67.6689C16.3315 67.8981 15.6646 68.0085 14.9947 67.995L14.9908 67.996ZM24.0423 62.0285L24.1916 67.7113H21.1843V57.6519H25.4L27.1333 63.0652H27.2007L28.7048 57.6519H33.0553V67.7154H29.9239L30.0201 62.0629L29.9393 62.0487L28.1559 67.7154H25.8786L24.1165 62.0326L24.0423 62.0285ZM37.8535 60.2813V61.5178H38.7202C38.9209 61.5297 39.1199 61.473 39.2873 61.3563C39.3608 61.2978 39.419 61.221 39.4569 61.1328C39.4947 61.0447 39.5109 60.948 39.504 60.8516C39.5074 60.7652 39.4877 60.6795 39.447 60.6042C39.4063 60.5289 39.3463 60.4671 39.2739 60.4257C39.0863 60.3225 38.8759 60.2734 38.6643 60.2833L37.8535 60.2813ZM37.8535 63.691V65.0546H38.8165C39.0346 65.0649 39.2503 65.0027 39.4327 64.877C39.5107 64.8184 39.5732 64.7401 39.6147 64.6494C39.6561 64.5587 39.675 64.4586 39.6696 64.3582C39.6741 64.2399 39.6379 64.1238 39.5676 64.0311C39.4983 63.9464 39.413 63.8777 39.3172 63.8293C39.2168 63.7767 39.1093 63.7406 38.9985 63.7223C38.8931 63.7041 38.7865 63.6946 38.6797 63.694L37.8535 63.691ZM41.1198 62.4797C41.3524 62.5392 41.576 62.6323 41.7842 62.7563C42.0013 62.8846 42.1979 63.0477 42.3668 63.2398C42.5402 63.4371 42.6779 63.666 42.7731 63.9151C42.8754 64.1865 42.9261 64.4762 42.9224 64.768C42.9379 65.2514 42.8277 65.73 42.6037 66.1528C42.3961 66.5213 42.108 66.8327 41.763 67.0613C41.3971 67.301 40.993 67.4696 40.57 67.5589C40.1175 67.659 39.6563 67.7091 39.1939 67.7083H34.8434V57.6519H38.7914C39.2063 57.6537 39.6207 57.6843 40.0317 57.7438C40.452 57.7998 40.8614 57.9245 41.245 58.1132C41.6129 58.2954 41.9302 58.5734 42.1665 58.9207C42.4266 59.3347 42.5547 59.8245 42.5324 60.3197C42.5511 60.7976 42.4153 61.2681 42.1472 61.6551C41.8826 62.0109 41.5279 62.2816 41.1236 62.4363L41.1198 62.4797ZM49.2084 67.7083H45.9556L43.3393 57.6489H46.7548L47.7852 63.3014H47.8391L48.9503 57.6489H52.3205L53.5271 63.3014H53.581L54.6248 57.6489H57.9325L55.2777 67.7154H52.0249L50.6691 62.0326H50.6152L49.2084 67.7083ZM61.3412 57.6489H64.7702L68.5112 67.7083H65.0003L64.4986 66.2306H61.4491L60.9743 67.7083H57.5588L61.3412 57.6489ZM63.008 61.1585L62.2223 63.6446H63.7813L63.008 61.1585ZM74.0095 67.7154H70.7837V63.5951L67.165 57.6559H71.0552L72.5737 60.6114L74.0239 57.6559H77.8188L74.0104 63.5951L74.0095 67.7154ZM81.5318 68C81.1479 68.0003 80.7647 67.9644 80.3869 67.893C80.0172 67.8234 79.6543 67.7186 79.3027 67.5801C78.9631 67.4468 78.6343 67.2851 78.3195 67.0966C78.0243 66.9211 77.7471 66.7141 77.4924 66.4789L79.4577 64.234C79.7172 64.5156 80.0224 64.7467 80.359 64.9164C80.7158 65.112 81.1119 65.2158 81.5145 65.2192C81.6843 65.2211 81.8527 65.1867 82.0094 65.1182C82.0812 65.0898 82.142 65.0375 82.1825 64.9693C82.2231 64.901 82.2411 64.8207 82.2338 64.7407C82.2363 64.6538 82.2101 64.5686 82.1597 64.4995C82.0851 64.4149 81.9954 64.3463 81.8958 64.2976C81.727 64.2075 81.5527 64.1292 81.3739 64.0634C81.1524 63.978 80.8745 63.877 80.54 63.7606C80.2196 63.6494 79.9072 63.5145 79.605 63.3569C79.3155 63.2067 79.0485 63.0129 78.8125 62.7815C78.5795 62.5504 78.3929 62.2728 78.2637 61.965C78.1199 61.603 78.0507 61.2133 78.0605 60.8213C78.0439 60.2659 78.1703 59.7161 78.4264 59.2296C78.6614 58.8038 78.9829 58.4375 79.3681 58.1566C79.7602 57.8727 80.199 57.6674 80.6623 57.551C81.1279 57.4296 81.6057 57.3675 82.0855 57.3663C82.7461 57.3717 83.4004 57.5016 84.0172 57.7498C84.6576 57.9966 85.2451 58.374 85.7456 58.8601L83.7398 61.005C83.5275 60.7248 83.2532 60.503 82.9406 60.359C82.6735 60.2245 82.3826 60.1496 82.0865 60.139C81.8916 60.1311 81.6975 60.1676 81.5174 60.246C81.4514 60.2735 81.3951 60.3217 81.3563 60.3841C81.3175 60.4464 81.2981 60.5198 81.3007 60.5942C81.3006 60.6681 81.3218 60.7404 81.3617 60.8013C81.4016 60.8622 81.4583 60.909 81.5241 60.9354C81.76 61.0459 82.0021 61.141 82.2492 61.22C82.5927 61.3338 82.9541 61.4663 83.3335 61.6177C83.7066 61.7656 84.0597 61.9638 84.384 62.2072C84.7016 62.4455 84.971 62.7474 85.1765 63.0955C85.3958 63.4917 85.504 63.9448 85.4885 64.4026C85.501 64.9524 85.3821 65.4968 85.1428 65.9863C84.9214 66.4251 84.6116 66.8081 84.2348 67.1087C83.8545 67.4101 83.4251 67.6365 82.9676 67.7769C82.5016 67.9223 82.018 67.9957 81.5318 67.995V68ZM86.5063 66.1105C86.5046 65.8633 86.5532 65.6187 86.6488 65.3928C86.7416 65.1733 86.8752 64.9753 87.0417 64.8104C87.2118 64.6426 87.4091 64.5079 87.6243 64.4127C87.8448 64.3133 88.0824 64.2625 88.3224 64.2633C88.5547 64.2621 88.7845 64.313 88.9964 64.4127C89.2048 64.5093 89.3952 64.644 89.5588 64.8104C89.7215 64.9769 89.8522 65.1746 89.9439 65.3928C90.0396 65.6187 90.0882 65.8633 90.0865 66.1105C90.0877 66.3598 90.0392 66.6067 89.9439 66.8352C89.8545 67.0547 89.7235 67.2528 89.5588 67.4176C89.3947 67.5796 89.2042 67.7095 88.9964 67.8012C88.7834 67.8963 88.554 67.9448 88.3224 67.9435C88.083 67.9444 87.8458 67.896 87.6243 67.8012C87.4097 67.7109 87.2124 67.581 87.0417 67.4176C86.8732 67.2544 86.7394 67.056 86.6488 66.8352C86.5523 66.6036 86.5037 66.3531 86.5063 66.1004V66.1105ZM91.63 57.657H94.8828V67.7154H91.63V57.657ZM96.6719 67.7164V57.6519H100.25C100.981 57.6488 101.71 57.7273 102.425 57.8861C103.08 58.0256 103.702 58.3001 104.255 58.6936C104.791 59.0857 105.226 59.6103 105.522 60.2208C105.862 60.9696 106.025 61.7933 105.997 62.6221C106.015 63.411 105.86 64.1937 105.542 64.9093C105.259 65.5277 104.844 66.0696 104.329 66.493C103.808 66.9132 103.214 67.2244 102.58 67.4095C101.911 67.6115 101.217 67.7134 100.52 67.7123L96.6719 67.7164ZM99.7754 60.5276V64.8185H100.371C100.994 64.8614 101.611 64.6781 102.12 64.2996C102.338 64.084 102.507 63.819 102.612 63.5247C102.718 63.2305 102.758 62.9148 102.73 62.6019C102.744 62.3156 102.697 62.0296 102.592 61.7651C102.486 61.5006 102.325 61.2646 102.12 61.0747C101.66 60.6909 101.081 60.4964 100.494 60.5276H99.7754Z" fill="#FE4E30"/>
<path fillRule="evenodd" clipRule="evenodd" d="M0 0.0117811H27.3804C30.4028 -0.0832233 33.4073 0.503815 36.164 1.72799C38.9206 2.95216 41.3564 4.78103 43.285 7.07469C47.7147 12.0058 49.3248 18.1043 49.3248 24.4892C49.3248 30.8741 47.7137 37.0664 43.285 42.0004C41.3088 44.2317 38.8616 46.0112 36.1145 47.2144C33.3674 48.4176 30.3866 49.0156 27.3804 48.9666H0V35.808H27.3804C30.2992 35.808 32.8164 34.9375 34.4265 32.8086C36.1997 30.3967 37.0871 27.4625 36.9428 24.4882C37.0425 21.5495 36.1584 18.6599 34.4265 16.2646C33.5922 15.2278 32.5158 14.4048 31.289 13.8657C30.0622 13.3266 28.7213 13.0874 27.3804 13.1684H0V0.0117811Z" fill="#FE4E30"/>
<path d="M74.9448 1.85044e-06H86.4206V23.2484H74.9448V1.85044e-06Z" fill="#FE4E30"/>
<path fillRule="evenodd" clipRule="evenodd" d="M106 0V27.1478C106 33.6635 103.785 38.9939 98.6515 43.0412C93.6019 47.0112 87.2963 49.1077 80.8364 48.9643C74.0955 48.9643 67.8506 47.3844 62.7169 43.0412C60.3683 41.0975 58.4898 38.662 57.2185 35.9124C55.9472 33.1629 55.3152 30.1685 55.3685 27.1478V0H68.7539V27.1478C68.6608 28.5884 68.9342 30.0291 69.5495 31.3392C70.1648 32.6494 71.1025 33.7876 72.2774 34.6507C74.4923 36.5264 77.7134 37.1163 80.8335 37.1163C83.9115 37.218 86.9429 36.3547 89.4907 34.6507C92.007 32.775 92.9131 30.3075 92.9131 27.1478V0H106Z" fill="#FE4E30"/>
</svg>
